<?xml version="1.0" standalone="no"?>
<svg viewBox="0 0 200 200" xmlns="http://www.w3.org/2000/svg">
  <path fill="#FFA222" d="M48.1,-74.9C61.6,-66.2,71.3,-51.6,77.6,-36C83.8,-20.4,86.7,-3.8,84.3,12.1C81.9,27.9,74.3,42.8,63.5,54.6C52.7,66.4,38.6,75,23.9,77.6C9.2,80.2,-6.2,76.8,-22.8,73.7C-39.4,70.6,-57.3,67.9,-68.8,57.8C-80.4,47.8,-85.7,30.4,-86.9,13.3C-88.2,-3.9,-85.4,-20.8,-77.5,-34.2C-69.5,-47.6,-56.4,-57.5,-42.7,-66.1C-28.9,-74.6,-14.4,-81.8,1.4,-84.1C17.3,-86.3,34.6,-83.5,48.1,-74.9Z" transform="translate(100 100)" />
</svg>
